<svg width="52" height="19" viewBox="0 0 52 19" fill="none" xmlns="http://www.w3.org/2000/svg">
<g clip-path="url(#clip0_555_76707)">
<path d="M50.9235 10.5753H1.07264C0.928671 10.5805 0.785149 10.5564 0.650628 10.5044C0.516106 10.4524 0.393355 10.3735 0.289689 10.2726C0.186024 10.1717 0.103561 10.0507 0.0472473 9.91692C-0.00906617 9.78314 -0.0380859 9.63927 -0.0380859 9.49392C-0.0380859 9.34857 -0.00906617 9.20471 0.0472473 9.07092C0.103561 8.93714 0.186024 8.81618 0.289689 8.71525C0.393355 8.61432 0.516106 8.53549 0.650628 8.48348C0.785149 8.43146 0.928671 8.40733 1.07264 8.41251H48.3374L41.8315 1.84709C41.7319 1.74655 41.653 1.62722 41.5991 1.4959C41.5453 1.36458 41.5176 1.22384 41.5177 1.08172C41.5177 0.939603 41.5456 0.798897 41.5995 0.667622C41.6535 0.536348 41.7325 0.417084 41.8322 0.316637C41.9318 0.216191 42.0501 0.136516 42.1803 0.0821894C42.3104 0.0278625 42.4499 -6.36491e-05 42.5908 1.08928e-07C42.7316 6.3867e-05 42.8711 0.0281303 43.0012 0.0825749C43.1313 0.13702 43.2496 0.216788 43.3491 0.317325L51.6884 8.72973C51.8387 8.88104 51.941 9.07398 51.9823 9.28407C52.0237 9.49415 52.0022 9.71188 51.9207 9.90965C51.8392 10.1074 51.7013 10.2763 51.5245 10.3948C51.3476 10.5133 51.1399 10.5762 50.9276 10.5753H50.9235Z" fill="#FF8700"/>
<path d="M42.5759 18.999C42.4352 18.9998 42.2957 18.9721 42.1658 18.9176C42.0358 18.8631 41.918 18.783 41.8192 18.6818C41.7195 18.5813 41.6404 18.462 41.5864 18.3306C41.5324 18.1993 41.5046 18.0584 41.5046 17.9162C41.5046 17.774 41.5324 17.6332 41.5864 17.5019C41.6404 17.3705 41.7195 17.2512 41.8192 17.1507L50.168 8.72728C50.3693 8.52424 50.6422 8.41016 50.9268 8.41016C51.2114 8.41016 51.4844 8.52424 51.6856 8.72728C51.8869 8.93032 51.9999 9.2057 51.9999 9.49285C51.9999 9.77999 51.8869 10.0554 51.6856 10.2584L43.3368 18.6818C43.2369 18.7826 43.1183 18.8626 42.9877 18.917C42.8572 18.9714 42.7172 18.9993 42.5759 18.999Z" fill="#FF8700"/>
</g>
<defs>
<clipPath id="clip0_555_76707">
<rect width="52" height="19" fill="white"/>
</clipPath>
</defs>
</svg>
